<svg width="48" height="48" viewBox="0 0 48 48" fill="none" xmlns="http://www.w3.org/2000/svg">
<circle cx="24" cy="24" r="24" fill="url(#paint0_linear_10483_168)"/>
<g filter="url(#filter0_i_10483_168)">
<path d="M29.2838 34.8303C29.0078 34.013 28.1231 33.5771 27.3085 33.8554L27.3088 33.8563C25.2321 34.5616 22.9207 34.5847 20.8287 33.9216L20.6269 33.8554L20.6266 33.8551L20.5503 33.8315C19.7845 33.6138 18.9755 34.013 18.6802 34.7536L18.6525 34.8287L18.6519 34.8301C18.3764 35.6444 18.811 36.5295 19.6233 36.808L19.6244 36.8086C21.0203 37.2838 22.4822 37.5252 23.968 37.5252C25.4539 37.5252 26.9157 37.2838 28.3116 36.8086L28.3113 36.8083C29.1241 36.5319 29.561 35.6468 29.2838 34.8303Z" fill="url(#paint1_linear_10483_168)"/>
<path d="M17.4574 30.5299C16.8682 29.9395 15.9257 29.921 15.3144 30.4746L15.2564 30.5299L13.0977 32.6934C12.4897 33.3027 12.4896 34.2888 13.0974 34.8982L13.0977 34.8985C13.4012 35.2026 13.7995 35.3556 14.1982 35.3556L14.2728 35.3537C14.6461 35.3358 15.014 35.1836 15.2986 34.8985L17.4576 32.7348C18.0465 32.1444 18.0648 31.2005 17.5126 30.5881L17.4574 30.5299Z" fill="url(#paint2_linear_10483_168)"/>
<path d="M32.6913 30.5299C32.102 29.9395 31.1598 29.921 30.5486 30.4746L30.4906 30.5299C29.8825 31.1394 29.8825 32.1257 30.4906 32.7351L32.6493 34.8985L32.7073 34.9535C33.0027 35.221 33.3761 35.3556 33.7498 35.3556L33.8245 35.3537C34.1978 35.3357 34.5655 35.1835 34.85 34.8985L34.9052 34.8401C35.4397 34.2474 35.4398 33.3442 34.9052 32.7515L34.85 32.6934L32.6913 30.5299Z" fill="url(#paint3_linear_10483_168)"/>
<path d="M11.1565 19.7418C10.7045 21.1119 10.4746 22.5435 10.4746 23.9963L10.4774 24.2694C10.5056 25.6369 10.7451 27.037 11.1898 28.349V28.3496C11.411 29 12.0156 29.4068 12.6633 29.4068L12.7255 29.4054C12.871 29.3996 13.0192 29.3735 13.166 29.3231L13.1657 29.3228C13.9779 29.0458 14.4143 28.1607 14.1365 27.3443H14.1354C13.7718 26.2713 13.5876 25.1446 13.5876 23.998L13.5895 23.7833C13.6101 22.7152 13.7853 21.7102 14.1124 20.7229L14.1357 20.6461C14.3485 19.8758 13.941 19.0677 13.1998 18.7783L13.1246 18.751L13.1232 18.7508L13.0466 18.7274C12.2796 18.5167 11.4731 18.9219 11.184 19.6653L11.1568 19.741L11.1565 19.7418Z" fill="url(#paint4_linear_10483_168)"/>
<path d="M15.2931 13.0972C14.7039 12.5068 13.7614 12.4883 13.1501 13.0419L13.0921 13.0972C12.4842 13.7066 12.4841 14.6927 13.0919 15.3021L15.2512 17.4658L15.3092 17.5208C15.6044 17.7882 15.9775 17.9229 16.3513 17.9229L16.426 17.921C16.7993 17.9031 17.1672 17.7509 17.4518 17.4658L17.4521 17.4655C18.0409 16.8751 18.0593 15.9312 17.507 15.3188L17.4518 15.2607L15.2931 13.0972Z" fill="url(#paint5_linear_10483_168)"/>
<path d="M34.8489 13.0972C34.2597 12.5069 33.3175 12.4883 32.7062 13.0419L32.6482 13.0972L30.5181 15.232C29.9101 15.8414 29.91 16.8277 30.5181 17.4371L30.5761 17.4922C30.8714 17.7597 31.2448 17.8943 31.6185 17.8943L31.6932 17.8923C32.0666 17.8744 32.4342 17.7222 32.7187 17.4371L34.8489 15.3024L34.9041 15.244C35.4386 14.6512 35.4386 13.7481 34.9041 13.1554L34.8489 13.0972Z" fill="url(#paint6_linear_10483_168)"/>
<path d="M28.2256 11.1571C25.4577 10.2377 22.3906 10.2472 19.6294 11.1872L19.5542 11.215C18.7897 11.519 18.3879 12.3753 18.6569 13.1665C18.8781 13.817 19.4829 14.2234 20.1304 14.2234L20.1926 14.2221C20.3375 14.2163 20.4852 14.1901 20.6314 14.14L20.6316 14.1403C22.7758 13.4097 25.173 13.4097 27.3171 14.1403C28.13 14.4166 29.0134 13.9811 29.2913 13.1673L29.2919 13.1657C29.5588 12.3767 29.1591 11.5214 28.3957 11.2155L28.3205 11.1877L28.2311 11.1571H28.2256Z" fill="url(#paint7_linear_10483_168)"/>
<path d="M36.81 28.3496C37.2845 26.95 37.525 25.4503 37.525 23.9969C37.525 22.6348 37.3232 21.2912 36.9255 19.9996L36.8433 19.7421L36.8428 19.7413L36.8158 19.6656C36.5266 18.922 35.7197 18.5173 34.953 18.728L34.8764 18.7513L34.875 18.7516C34.0612 19.0227 33.616 19.9048 33.8872 20.7231L33.9508 20.9208C34.2575 21.9107 34.412 22.9215 34.412 23.9983L34.4098 24.2132C34.3882 25.2857 34.205 26.3388 33.8642 27.3446H33.8633C33.5855 28.1609 34.0218 29.0463 34.8339 29.3234C35.0006 29.3806 35.1702 29.4074 35.3365 29.4074L35.397 29.406C36.0215 29.3815 36.5958 28.9803 36.81 28.3501V28.3496Z" fill="url(#paint8_linear_10483_168)"/>
</g>
<defs>
<filter id="filter0_i_10483_168" x="10.4746" y="10.4748" width="27.0508" height="27.0504" filterUnits="userSpaceOnUse" color-interpolation-filters="sRGB">
<feFlood flood-opacity="0" result="BackgroundImageFix"/>
<feBlend mode="normal" in="SourceGraphic" in2="BackgroundImageFix" result="shape"/>
<feColorMatrix in="SourceAlpha" type="matrix" values="0 0 0 0 0 0 0 0 0 0 0 0 0 0 0 0 0 0 127 0" result="hardAlpha"/>
<feOffset/>
<feGaussianBlur stdDeviation="0.48"/>
<feComposite in2="hardAlpha" operator="arithmetic" k2="-1" k3="1"/>
<feColorMatrix type="matrix" values="0 0 0 0 0 0 0 0 0 0 0 0 0 0 0 0 0 0 0.25 0"/>
<feBlend mode="normal" in2="shape" result="effect1_innerShadow_10483_168"/>
</filter>
<linearGradient id="paint0_linear_10483_168" x1="-14" y1="3.27273" x2="57.4545" y2="50.3636" gradientUnits="userSpaceOnUse">
<stop stop-color="#389900"/>
<stop offset="0.5" stop-color="#9EFF00"/>
<stop offset="1" stop-color="#389900"/>
</linearGradient>
<linearGradient id="paint1_linear_10483_168" x1="5.95335" y1="10.4187" x2="42.3254" y2="38.8838" gradientUnits="userSpaceOnUse">
<stop/>
<stop offset="0.519231" stop-color="#5D6F4D"/>
<stop offset="1"/>
</linearGradient>
<linearGradient id="paint2_linear_10483_168" x1="5.95335" y1="10.4187" x2="42.3254" y2="38.8838" gradientUnits="userSpaceOnUse">
<stop/>
<stop offset="0.519231" stop-color="#5D6F4D"/>
<stop offset="1"/>
</linearGradient>
<linearGradient id="paint3_linear_10483_168" x1="5.95335" y1="10.4187" x2="42.3254" y2="38.8838" gradientUnits="userSpaceOnUse">
<stop/>
<stop offset="0.519231" stop-color="#5D6F4D"/>
<stop offset="1"/>
</linearGradient>
<linearGradient id="paint4_linear_10483_168" x1="5.95335" y1="10.4187" x2="42.3254" y2="38.8838" gradientUnits="userSpaceOnUse">
<stop/>
<stop offset="0.519231" stop-color="#5D6F4D"/>
<stop offset="1"/>
</linearGradient>
<linearGradient id="paint5_linear_10483_168" x1="5.95335" y1="10.4187" x2="42.3254" y2="38.8838" gradientUnits="userSpaceOnUse">
<stop/>
<stop offset="0.519231" stop-color="#5D6F4D"/>
<stop offset="1"/>
</linearGradient>
<linearGradient id="paint6_linear_10483_168" x1="5.95335" y1="10.4187" x2="42.3254" y2="38.8838" gradientUnits="userSpaceOnUse">
<stop/>
<stop offset="0.519231" stop-color="#5D6F4D"/>
<stop offset="1"/>
</linearGradient>
<linearGradient id="paint7_linear_10483_168" x1="5.95335" y1="10.4187" x2="42.3254" y2="38.8838" gradientUnits="userSpaceOnUse">
<stop/>
<stop offset="0.519231" stop-color="#5D6F4D"/>
<stop offset="1"/>
</linearGradient>
<linearGradient id="paint8_linear_10483_168" x1="5.95335" y1="10.4187" x2="42.3254" y2="38.8838" gradientUnits="userSpaceOnUse">
<stop/>
<stop offset="0.519231" stop-color="#5D6F4D"/>
<stop offset="1"/>
</linearGradient>
</defs>
</svg>
