<svg width="1920" height="2200" viewBox="0 0 1920 2200" fill="none" xmlns="http://www.w3.org/2000/svg">
  <defs>
    <linearGradient id="g" x1="0" y1="0" x2="800" y2="0" gradientUnits="userSpaceOnUse"><stop offset="0" stop-color="#9945FF"/><stop offset="1" stop-color="#14F195"/></linearGradient>
    <linearGradient id="full" x1="0" y1="0" x2="1920" y2="0" gradientUnits="userSpaceOnUse"><stop offset="0" stop-color="#9945FF"/><stop offset="0.5" stop-color="#14F195"/><stop offset="1" stop-color="#03E1FF"/></linearGradient>
  </defs>

  <rect width="1920" height="2200" fill="#0A0A0F"/>
  <rect x="0" y="0" width="1920" height="2" fill="url(#full)" opacity="0.3"/>

  <!-- HEADER -->
  <text x="120" y="75" font-family="Helvetica Neue, Arial" font-size="11" font-weight="600" fill="#9945FF" opacity="0.6" letter-spacing="4">SUPERTEAM MALAYSIA</text>
  <text x="120" y="128" font-family="Helvetica Neue, Arial" font-size="56" font-weight="800" fill="#FFFFFF" letter-spacing="-2">Website Screens</text>
  <rect x="120" y="148" width="80" height="3" rx="1.5" fill="url(#g)" opacity="0.6"/>
  <text x="120" y="185" font-family="Helvetica Neue, Arial" font-size="15" fill="#FFFFFF" opacity="0.25">Desktop (1440px) and Mobile (390px) responsive views</text>

  <!-- ═══ DESKTOP VIEW ═══ -->
  <text x="120" y="260" font-family="Courier New, monospace" font-size="12" font-weight="700" fill="#14F195" letter-spacing="3">01</text>
  <text x="155" y="260" font-family="Helvetica Neue, Arial" font-size="11" font-weight="700" fill="#FFFFFF" opacity="0.35" letter-spacing="3">DESKTOP · 1440 × 900</text>

  <!-- Browser chrome frame -->
  <rect x="120" y="285" width="1200" height="38" rx="10" fill="#1A1A24"/>
  <rect x="120" y="310" width="1200" height="3" fill="#FFFFFF" opacity="0.03"/>
  <!-- Traffic lights -->
  <circle cx="145" cy="304" r="6" fill="#FF5F57"/>
  <circle cx="165" cy="304" r="6" fill="#FEBC2E"/>
  <circle cx="185" cy="304" r="6" fill="#28C840"/>
  <!-- URL bar -->
  <rect x="220" y="295" width="500" height="20" rx="5" fill="#FFFFFF" opacity="0.04"/>
  <text x="240" y="309" font-family="Helvetica Neue, Arial" font-size="11" fill="#FFFFFF" opacity="0.25">superteam-malaysia.vercel.app</text>

  <!-- Desktop screenshot area -->
  <rect x="120" y="323" width="1200" height="675" rx="0" fill="#0F0F17"/>
  <rect x="120" y="323" width="1200" height="675" fill="none" stroke="#FFFFFF" stroke-width="0.5" stroke-opacity="0.04"/>
  <!-- Placeholder text -->
  <text x="720" y="640" text-anchor="middle" font-family="Helvetica Neue, Arial" font-size="16" fill="#FFFFFF" opacity="0.08">PASTE DESKTOP SCREENSHOT HERE</text>
  <text x="720" y="670" text-anchor="middle" font-family="Helvetica Neue, Arial" font-size="12" fill="#FFFFFF" opacity="0.05">Use html.to.design plugin or capture at 1440×900 viewport</text>
  <!-- Bottom of browser -->
  <rect x="120" y="994" width="1200" height="4" rx="0 0 10 10" fill="#1A1A24"/>

  <!-- ═══ MOBILE VIEW ═══ -->
  <text x="1400" y="260" font-family="Courier New, monospace" font-size="12" font-weight="700" fill="#03E1FF" letter-spacing="3">02</text>
  <text x="1435" y="260" font-family="Helvetica Neue, Arial" font-size="11" font-weight="700" fill="#FFFFFF" opacity="0.35" letter-spacing="3">MOBILE · 390 × 844</text>

  <!-- iPhone frame -->
  <rect x="1420" y="285" width="330" height="700" rx="36" fill="#1A1A24"/>
  <rect x="1420" y="285" width="330" height="700" rx="36" fill="none" stroke="#FFFFFF" stroke-width="1" stroke-opacity="0.06"/>
  <!-- Notch -->
  <rect x="1525" y="290" width="120" height="26" rx="13" fill="#0A0A0F"/>
  <!-- Screen area -->
  <rect x="1430" y="322" width="310" height="645" rx="4" fill="#0F0F17"/>
  <!-- Placeholder text -->
  <text x="1585" y="630" text-anchor="middle" font-family="Helvetica Neue, Arial" font-size="11" fill="#FFFFFF" opacity="0.08">PASTE MOBILE</text>
  <text x="1585" y="650" text-anchor="middle" font-family="Helvetica Neue, Arial" font-size="11" fill="#FFFFFF" opacity="0.08">SCREENSHOT</text>
  <text x="1585" y="670" text-anchor="middle" font-family="Helvetica Neue, Arial" font-size="11" fill="#FFFFFF" opacity="0.08">HERE</text>
  <!-- Home indicator -->
  <rect x="1540" y="958" width="90" height="4" rx="2" fill="#FFFFFF" opacity="0.1"/>

  <!-- ═══ MEMBERS PAGE — DESKTOP ═══ -->
  <text x="120" y="1090" font-family="Courier New, monospace" font-size="12" font-weight="700" fill="#9945FF" letter-spacing="3">03</text>
  <text x="155" y="1090" font-family="Helvetica Neue, Arial" font-size="11" font-weight="700" fill="#FFFFFF" opacity="0.35" letter-spacing="3">MEMBERS PAGE · DESKTOP</text>

  <!-- Browser chrome frame -->
  <rect x="120" y="1115" width="1200" height="38" rx="10" fill="#1A1A24"/>
  <rect x="120" y="1140" width="1200" height="3" fill="#FFFFFF" opacity="0.03"/>
  <circle cx="145" cy="1134" r="6" fill="#FF5F57"/>
  <circle cx="165" cy="1134" r="6" fill="#FEBC2E"/>
  <circle cx="185" cy="1134" r="6" fill="#28C840"/>
  <rect x="220" y="1125" width="500" height="20" rx="5" fill="#FFFFFF" opacity="0.04"/>
  <text x="240" y="1139" font-family="Helvetica Neue, Arial" font-size="11" fill="#FFFFFF" opacity="0.25">superteam-malaysia.vercel.app/members</text>

  <!-- Desktop screenshot area -->
  <rect x="120" y="1153" width="1200" height="675" rx="0" fill="#0F0F17"/>
  <rect x="120" y="1153" width="1200" height="675" fill="none" stroke="#FFFFFF" stroke-width="0.5" stroke-opacity="0.04"/>
  <text x="720" y="1470" text-anchor="middle" font-family="Helvetica Neue, Arial" font-size="16" fill="#FFFFFF" opacity="0.08">PASTE /MEMBERS DESKTOP SCREENSHOT HERE</text>
  <rect x="120" y="1824" width="1200" height="4" fill="#1A1A24"/>

  <!-- ═══ MEMBERS PAGE — MOBILE ═══ -->
  <text x="1400" y="1090" font-family="Courier New, monospace" font-size="12" font-weight="700" fill="#F7DA00" letter-spacing="3">04</text>
  <text x="1435" y="1090" font-family="Helvetica Neue, Arial" font-size="11" font-weight="700" fill="#FFFFFF" opacity="0.35" letter-spacing="3">MEMBERS · MOBILE</text>

  <!-- iPhone frame -->
  <rect x="1420" y="1115" width="330" height="700" rx="36" fill="#1A1A24"/>
  <rect x="1420" y="1115" width="330" height="700" rx="36" fill="none" stroke="#FFFFFF" stroke-width="1" stroke-opacity="0.06"/>
  <rect x="1525" y="1120" width="120" height="26" rx="13" fill="#0A0A0F"/>
  <rect x="1430" y="1152" width="310" height="645" rx="4" fill="#0F0F17"/>
  <text x="1585" y="1460" text-anchor="middle" font-family="Helvetica Neue, Arial" font-size="11" fill="#FFFFFF" opacity="0.08">PASTE MOBILE</text>
  <text x="1585" y="1480" text-anchor="middle" font-family="Helvetica Neue, Arial" font-size="11" fill="#FFFFFF" opacity="0.08">/MEMBERS HERE</text>
  <rect x="1540" y="1788" width="90" height="4" rx="2" fill="#FFFFFF" opacity="0.1"/>

  <!-- INSTRUCTION NOTE -->
  <rect x="120" y="1900" width="1630" height="120" rx="16" fill="#9945FF" opacity="0.03"/>
  <rect x="120" y="1900" width="1630" height="120" rx="16" fill="none" stroke="#9945FF" stroke-width="0.5" stroke-opacity="0.1"/>
  <text x="160" y="1940" font-family="Helvetica Neue, Arial" font-size="14" font-weight="700" fill="#9945FF" opacity="0.6">How to capture these screens</text>
  <text x="160" y="1968" font-family="Helvetica Neue, Arial" font-size="12" fill="#FFFFFF" opacity="0.3">Option A (BEST): Install html.to.design Figma plugin → paste your Vercel URL → get editable Figma layers</text>
  <text x="160" y="1990" font-family="Helvetica Neue, Arial" font-size="12" fill="#FFFFFF" opacity="0.3">Option B: Chrome DevTools → Cmd+Shift+P → "Capture full size screenshot" at 1440px and 390px viewports</text>
  <text x="160" y="2012" font-family="Helvetica Neue, Arial" font-size="12" fill="#FFFFFF" opacity="0.3">Then drag the screenshot into Figma and resize to fit inside the browser/phone frame above</text>

  <!-- Footer -->
  <rect x="120" y="2140" width="60" height="2" fill="url(#g)" opacity="0.3"/>
  <text x="120" y="2170" font-family="Helvetica Neue, Arial" font-size="10" fill="#FFFFFF" opacity="0.1">© 2026 edison9733 · All Rights Reserved · Superteam Malaysia Website Screens</text>
</svg>
